<?xml version="1.0" encoding="UTF-8"?>
<svg xmlns="http://www.w3.org/2000/svg" viewBox="0 0 600 180" role="img" aria-label="Insighty">
  <title>Insighty</title>
  <defs>
    <linearGradient id="ig-back" x1="0" y1="0" x2="0" y2="1">
      <stop offset="0%" stop-color="#162B5C"></stop>
      <stop offset="100%" stop-color="#0A1535"></stop>
    </linearGradient>
    <linearGradient id="ig-front" x1="0" y1="0" x2="1" y2="1">
      <stop offset="0%" stop-color="#5BC8FF"></stop>
      <stop offset="100%" stop-color="#1E6BD6"></stop>
    </linearGradient>
    <linearGradient id="ig-arrow" x1="0" y1="1" x2="1" y2="0">
      <stop offset="0%" stop-color="#1E6BD6"></stop>
      <stop offset="100%" stop-color="#7FD8FF"></stop>
    </linearGradient>
    <radialGradient id="ig-dot" cx="0.35" cy="0.35" r="0.7">
      <stop offset="0%" stop-color="#A3E4FF"></stop>
      <stop offset="60%" stop-color="#4AB0F0"></stop>
      <stop offset="100%" stop-color="#1E6BD6"></stop>
    </radialGradient>
  </defs>

  
  <g transform="translate(8 14)">

    
    <path d="M 0 152&#xA;             L 0 116&#xA;             L 38 70&#xA;             L 76 116&#xA;             L 76 152 Z" fill="url(#ig-back)"></path>
    
    <path d="M 22 152&#xA;             L 22 124&#xA;             L 50 90&#xA;             L 76 122&#xA;             L 76 152 Z" fill="#0A1535" opacity="0.55"></path>

    
    <path d="M 70 152&#xA;             L 70 110&#xA;             L 102 72&#xA;             L 134 110&#xA;             L 134 152 Z" fill="url(#ig-back)"></path>

    
    <path d="M 56 152&#xA;             L 56 88&#xA;             L 102 30&#xA;             L 102 56&#xA;             L 78 86&#xA;             L 78 152 Z" fill="url(#ig-arrow)"></path>

    
    <path d="M 90 18&#xA;             L 130 18&#xA;             L 130 58&#xA;             L 116 44&#xA;             L 96 64&#xA;             L 78 46&#xA;             L 96 28 Z" fill="url(#ig-front)"></path>

    
    <circle cx="118" cy="6" r="11" fill="url(#ig-dot)"></circle>
    <circle cx="115" cy="3" r="3" fill="#E8F7FF" opacity="0.8"></circle>
  </g>

  
  
  <rect x="225" y="46" width="18" height="5" rx="1.5" fill="#3DA5E8"></rect>

  <text x="180" y="128" font-family="Manrope, &#39;Plus Jakarta Sans&#39;, &#39;Helvetica Neue&#39;, Arial, sans-serif" font-size="108" font-weight="700" letter-spacing="-3" fill="#0E1F44">Insighty</text>
</svg>